<?xml version="1.0" encoding="UTF-8"?>
<svg version="1.1" xmlns="http://www.w3.org/2000/svg" width="100" height="100">
<path d="M0 0 C9.62541245 7.76242939 14.7351986 19.15576342 16.21875 31.32421875 C16.64147924 44.07961415 12.3219512 56.3376192 3.7109375 65.78125 C-5.78587005 74.51186076 -18.17511289 79.37920117 -31.09375 78.8515625 C-43.47785364 77.30554184 -54.52482576 72.19395496 -62.56640625 62.53515625 C-66.71287254 56.94422425 -70.13184047 51.45211668 -71.12890625 44.47265625 C-71.62390625 42.98765625 -71.62390625 42.98765625 -72.12890625 41.47265625 C-73.19319272 28.52674544 -71.01045611 17.12985639 -63.0390625 6.6875 C-46.36903561 -12.64154958 -20.44939812 -14.67103608 0 0 Z M-28.12890625 53.47265625 C-27.46890625 54.79265625 -26.80890625 56.11265625 -26.12890625 57.47265625 C-26.12890625 56.15265625 -26.12890625 54.83265625 -26.12890625 53.47265625 C-26.78890625 53.47265625 -27.44890625 53.47265625 -28.12890625 53.47265625 Z M-13.12890625 58.47265625 C-9.12890625 59.47265625 -9.12890625 59.47265625 -9.12890625 59.47265625 Z " fill="#95C7E5" transform="translate(81.12890625,11.52734375)"/>
<path d="M0 0 C-1.33976556 10.22903922 -6.18781855 18.47090309 -14.37109375 24.84765625 C-24.49209012 31.76636349 -35.69389036 35.53628396 -48 34 C-61.82452408 31.19526462 -72.17456049 24.76577846 -80 13 C-82.46520564 8.92856972 -84 5.87950177 -84 1 C-76.29619617 0.86740551 -68.59235969 0.73690467 -60.88847923 0.60884857 C-57.30861082 0.54928204 -53.72875584 0.48907839 -50.14892578 0.42724609 C-33.43174592 0.13898996 -16.72036597 -0.07999112 0 0 Z M-42 9 C-41.34 10.32 -40.68 11.64 -40 13 C-40 11.68 -40 10.36 -40 9 C-40.66 9 -41.32 9 -42 9 Z M-27 14 C-23 15 -23 15 -23 15 Z " fill="#009EDB" transform="translate(95,56)"/>
<path d="M0 0 C0.66 0.33 1.32 0.66 2 1 C1.20335938 1.67804687 0.40671875 2.35609375 -0.4140625 3.0546875 C-10.0882379 11.47251609 -17.92064376 20.58924471 -19.18017578 33.90478516 C-20.05917268 47.34808178 -17.90687968 59.40751729 -9 70 C0.77697737 80.46428685 11.68906849 85.15484168 25.8125 86.3125 C37.97652443 85.89558787 49.42112769 81.58566154 58.3125 73.25 C64.59957771 66.48623812 68.55923405 58.86383423 71 50 C71.66 50.66 72.32 51.32 73 52 C69.3193065 66.37985223 62.67532761 79.13650482 49.62890625 87.04296875 C36.23424429 94.26989846 22.76705976 96.24363353 7.91015625 92.03515625 C-5.52114484 87.25757935 -15.47147389 78.65007917 -22 66 C-27.66663757 53.15102848 -28.32971628 40.36369177 -24 27 C-19.31238387 15.62506447 -11.54614129 5.05143682 0 0 Z " fill="#004F6E" transform="translate(27,5)"/>
<path d="M0 0 C-0.57885609 4.49213361 -1.14500613 7.9430669 -3.4375 11.875 C-4.08525391 13.01582031 -4.08525391 13.01582031 -4.74609375 14.1796875 C-6 16 -6 16 -8 17 C-10.17376855 16.76709623 -12.33991035 16.46193706 -14.5 16.125 C-23.30446702 14.82460088 -32.1156037 14.38672057 -41 14 C-40.67 12.68 -40.34 11.36 -40 10 C-44.52057096 8.86297214 -48.95339783 8.87185366 -53.58203125 8.90234375 C-54.39621017 8.9037587 -55.2103891 8.90517365 -56.04924011 8.90663147 C-58.63703156 8.91220683 -61.22473492 8.92475476 -63.8125 8.9375 C-65.57226437 8.94251819 -67.33203011 8.94708054 -69.09179688 8.95117188 C-73.39456494 8.96216819 -77.69726756 8.97941579 -82 9 C-83.76462683 5.91190305 -84 4.76687864 -84 1 C-76.29619617 0.86740551 -68.59235969 0.73690467 -60.88847923 0.60884857 C-57.30861082 0.54928204 -53.72875584 0.48907839 -50.14892578 0.42724609 C-33.43174592 0.13898996 -16.72036597 -0.07999112 0 0 Z " fill="#6FA65E" transform="translate(95,56)"/>
<path d="M0 0 C0.82242187 0.03222656 1.64484375 0.06445312 2.4921875 0.09765625 C6.52632588 1.38451048 9.01358194 3.22354964 11.125 6.9375 C11.84584327 11.09698049 11.69167847 15.10744751 11.5 19.3125 C11.37625 23.14875 11.2525 26.985 11.125 30.9375 C1.555 30.9375 -8.015 30.9375 -17.875 30.9375 C-18.97006492 27.65230525 -18.97460608 25.20086585 -18.9375 21.75 C-18.92396484 20.11998047 -18.92396484 20.11998047 -18.91015625 18.45703125 C-18.89855469 17.62558594 -18.88695312 16.79414062 -18.875 15.9375 C-13.125 17.8125 -13.125 17.8125 -10.875 18.9375 C-10.875 17.9475 -10.875 16.9575 -10.875 15.9375 C-6.125 17.8125 -6.125 17.8125 -3.875 18.9375 C-3.545 17.9475 -3.215 16.9575 -2.875 15.9375 C1.875 17.8125 1.875 17.8125 4.125 18.9375 C4.29187448 16.52104218 4.29187448 16.52104218 4.125 13.9375 C1.50048041 11.31298041 -0.2232112 11.35886025 -3.875 10.9375 C-4.9475 10.958125 -6.02 10.97875 -7.125 11 C-9.875 10.9375 -9.875 10.9375 -11.875 8.9375 C-12.24144691 6.07921413 -12.32318574 4.56496004 -10.625 2.1875 C-7.32512826 -0.16955124 -3.95876342 -0.24048563 0 0 Z " fill="#FAFCFE" transform="translate(27.875,25.0625)"/>
<path d="M0 0 C3.96 0 7.92 0 12 0 C12 1.32 12 2.64 12 4 C13.65 4 15.3 4 17 4 C17.02736707 5.39572052 17.04655989 6.79160221 17.0625 8.1875 C17.07410156 8.96480469 17.08570312 9.74210937 17.09765625 10.54296875 C17 13 17 13 16 18 C7.42 18 -1.16 18 -10 18 C-10 13.05 -10 8.1 -10 3 C-7.03 3 -4.06 3 -1 3 C-0.67 2.01 -0.34 1.02 0 0 Z " fill="#FBFCFE" transform="translate(80,38)"/>
<path d="M0 0 C2.88711593 2.46461116 3.84630402 3.90147822 4.37109375 7.65234375 C3.85948531 12.26759038 1.86729024 15.44373422 -0.5 19.375 C-0.92925781 20.11105469 -1.35851563 20.84710938 -1.80078125 21.60546875 C-2.85563776 23.41044544 -3.92626881 25.20618718 -5 27 C-10.24175902 21.95860415 -14.43419721 15.24050687 -15.6875 8.0625 C-14.87193431 4.42952554 -13.61833046 2.61833046 -11 0 C-7.49055854 -1.75472073 -3.71048867 -0.95563207 0 0 Z " fill="#FF0707" transform="translate(59,27)"/>
<path d="M0 0 C0 1.32 0 2.64 0 4 C-27.72 4 -55.44 4 -84 4 C-84 3.01 -84 2.02 -84 1 C-76.29619617 0.86740551 -68.59235969 0.73690467 -60.88847923 0.60884857 C-57.30861082 0.54928204 -53.72875584 0.48907839 -50.14892578 0.42724609 C-33.43174592 0.13898996 -16.72036597 -0.07999112 0 0 Z " fill="#5E9F70" transform="translate(95,56)"/>
<path d="M0 0 C0.66 0.99 1.32 1.98 2 3 C3.99422795 3.36628677 5.99453311 3.70131344 8 4 C9 6 9 6 9 12 C0.75 12 -7.5 12 -16 12 C-16 7 -16 7 -14.625 5.1875 C-13 4 -13 4 -11 4 C-10.67 3.34 -10.34 2.68 -10 2 C-8.68 4.31 -7.36 6.62 -6 9 C-3.03 4.545 -3.03 4.545 0 0 Z " fill="#F9F6F7" transform="translate(59,44)"/>
<path d="M0 0 C2.4375 0.8125 2.4375 0.8125 4.4375 3.8125 C4.25 6.375 4.25 6.375 3.4375 8.8125 C0.4375 10.8125 0.4375 10.8125 -2.125 10.5625 C-4.5625 9.8125 -4.5625 9.8125 -6.5625 7.8125 C-6.375 4.8125 -6.375 4.8125 -5.5625 1.8125 C-2.5625 -0.1875 -2.5625 -0.1875 0 0 Z " fill="#FFE5E5" transform="translate(54.5625,30.1875)"/>
</svg>
